<svg xmlns="http://www.w3.org/2000/svg" width="1800" height="1480" viewBox="0 0 1800 1480" role="img" aria-labelledby="title desc">
  <title id="title">Gemmini and CGRA AutoLink architecture</title>
  <desc id="desc">The CPU configures Gemmini and CGRA. AutoLink connects the Gemmini and CGRA adapters. The CGRA DMA reads the four-bank Gemmini external SPM through the TileLink system bus, fills the CGRA SPM, and starts the CGRA.</desc>
  <defs>
    <style>
      .title { font-family: Arial, sans-serif; font-size: 34px; font-weight: 700; fill: #111111; }
      .group-title { font-family: Arial, sans-serif; font-size: 27px; font-weight: 500; fill: #111111; }
      .module { font-family: Arial, sans-serif; font-size: 23px; font-weight: 500; fill: #111111; }
      .label { font-family: Arial, sans-serif; font-size: 17px; font-weight: 400; fill: #111111; }
      .edge-label { font-family: Arial, sans-serif; font-size: 19px; font-weight: 400; fill: #111111; }
      .flow-title { font-family: Arial, sans-serif; font-size: 25px; font-weight: 700; fill: #111111; }
      .flow { font-family: Arial, sans-serif; font-size: 18px; font-weight: 400; fill: #111111; }
      .soc { fill: #f5f5f5; stroke: #666666; stroke-width: 4; }
      .ip { fill: #dce9f8; stroke: #7093c3; stroke-width: 4; }
      .block { fill: #ffe4c4; stroke: #d79700; stroke-width: 4; }
      .fabric { fill: #dcefd7; stroke: #82b66b; stroke-width: 4; }
      .cpu-box { fill: #f5f5f5; stroke: #666666; stroke-width: 4; }
      .flow-box { fill: #ffffff; stroke: #777777; stroke-width: 3; }
      .label-bg { fill: #f5f5f5; stroke: none; }
      .line { fill: none; stroke: #111111; stroke-width: 3; }
      .line-bi { fill: none; stroke: #111111; stroke-width: 3; }
      .event { fill: none; stroke: #111111; stroke-width: 3; stroke-dasharray: 8 6; }
      .manual-line { fill: none; stroke: #a46700; stroke-width: 4; }
      .arrowhead { fill: #111111; stroke: none; }
      .manual-head { fill: #a46700; stroke: none; }
      .step { fill: #555555; stroke: none; }
      .step-text { font-family: Arial, sans-serif; font-size: 17px; font-weight: 700; fill: #ffffff; }
    </style>
  </defs>

  <rect width="1800" height="1480" fill="#ffffff"/>

  <rect x="25" y="335" width="235" height="220" class="cpu-box"/>
  <text x="142" y="455" text-anchor="middle" class="module">CPU</text>

  <rect x="300" y="30" width="1200" height="900" class="soc"/>
  <text x="325" y="78" class="title">AutoLink configuration</text>

  <rect x="700" y="105" width="400" height="105" class="fabric"/>
  <text x="900" y="168" text-anchor="middle" class="module">AutoLink Fabric</text>

  <rect x="350" y="265" width="500" height="405" class="ip"/>
  <text x="370" y="305" class="group-title">Gemmini</text>

  <rect x="385" y="390" width="210" height="115" class="block"/>
  <text x="490" y="455" text-anchor="middle" class="module">Gemmini Core</text>

  <rect x="610" y="315" width="210" height="95" class="block"/>
  <text x="715" y="355" text-anchor="middle" class="module">GemminiLink</text>
  <text x="715" y="385" text-anchor="middle" class="module">Adapter</text>

  <rect x="610" y="500" width="210" height="125" class="block"/>
  <text x="715" y="550" text-anchor="middle" class="module">External SPM</text>
  <text x="715" y="585" text-anchor="middle" class="label">4 banks</text>

  <rect x="930" y="265" width="540" height="405" class="ip"/>
  <text x="950" y="305" class="group-title">CGRA</text>

  <rect x="960" y="325" width="210" height="85" class="block"/>
  <text x="1065" y="360" text-anchor="middle" class="module">CgraLink</text>
  <text x="1065" y="388" text-anchor="middle" class="module">Control</text>

  <rect x="1200" y="325" width="220" height="85" class="block"/>
  <text x="1310" y="360" text-anchor="middle" class="module">CgraLink</text>
  <text x="1310" y="388" text-anchor="middle" class="module">Adapter</text>

  <rect x="960" y="500" width="210" height="125" class="fabric"/>
  <text x="1065" y="550" text-anchor="middle" class="module">CGRA DMA</text>
  <text x="1065" y="585" text-anchor="middle" class="label">TileLink master</text>

  <rect x="1200" y="435" width="220" height="80" class="block"/>
  <text x="1310" y="485" text-anchor="middle" class="module">CGRA Core</text>

  <rect x="1200" y="545" width="220" height="80" class="block"/>
  <text x="1310" y="595" text-anchor="middle" class="module">CGRA SPM</text>

  <rect x="500" y="770" width="800" height="105" class="fabric"/>
  <text x="900" y="833" text-anchor="middle" class="module">TileLink System Bus</text>

  <path d="M260 448 H385" class="line"/>
  <polygon points="385,448 369,438 369,458" class="arrowhead"/>
  <text x="275" y="433" class="edge-label">3  custom3</text>

  <path d="M260 520 H315 V225 H1360 V325" class="line"/>
  <polygon points="1360,325 1350,309 1370,309" class="arrowhead"/>
  <text x="395" y="214" class="edge-label">2  queue launch (custom0)</text>

  <path d="M1065 210 V325" class="event"/>
  <polygon points="1065,325 1055,309 1075,309" class="arrowhead"/>
  <text x="840" y="285" class="edge-label">8  result</text>

  <path d="M260 475 H285 V95 H1125 V325" class="line-bi"/>
  <polygon points="260,475 276,465 276,485" class="arrowhead"/>
  <polygon points="1125,325 1115,309 1135,309" class="arrowhead"/>
  <text x="735" y="82" class="edge-label">2  config / 8  result (PBus)</text>

  <path d="M780 210 V258 H715 V315" class="event"/>
  <polygon points="780,210 770,226 790,226" class="arrowhead"/>
  <polygon points="715,315 705,299 725,299" class="arrowhead"/>
  <text x="545" y="247" class="edge-label">1  watch / 4  ready</text>

  <path d="M1020 210 V258 H1260 V325" class="event"/>
  <polygon points="1020,210 1010,226 1030,226" class="arrowhead"/>
  <polygon points="1260,325 1250,309 1270,309" class="arrowhead"/>
  <rect x="1055" y="226" width="205" height="27" class="label-bg"/>
  <text x="1070" y="247" class="edge-label">5  copy / 7  compute</text>

  <path d="M1170 368 H1200" class="line"/>
  <polygon points="1200,368 1184,358 1184,378" class="arrowhead"/>
  <text x="1185" y="347" text-anchor="middle" class="edge-label">2</text>

  <path d="M520 505 V545 H610" class="line-bi"/>
  <polygon points="520,505 514,513 526,513" class="arrowhead"/>
  <polygon points="610,545 602,539 602,551" class="arrowhead"/>
  <text x="455" y="575" class="edge-label">3  local write</text>

  <path d="M760 500 V410" class="event"/>
  <polygon points="760,410 754,418 766,418" class="arrowhead"/>
  <text x="770" y="462" class="edge-label">4  write / ack</text>

  <path d="M1310 410 V435" class="line-bi"/>
  <polygon points="1310,410 1304,418 1316,418" class="arrowhead"/>
  <polygon points="1310,435 1304,427 1316,427" class="arrowhead"/>
  <text x="1328" y="430" class="edge-label">7  launch / done</text>

  <path d="M1200 390 H1185 V470 H1100 V500" class="line-bi"/>
  <polygon points="1200,390 1192,384 1192,396" class="arrowhead"/>
  <polygon points="1100,500 1094,492 1106,492" class="arrowhead"/>
  <text x="950" y="445" class="edge-label">5  DMA cmd / 6  done</text>

  <path d="M1170 585 H1200" class="line-bi"/>
  <polygon points="1170,585 1178,579 1178,591" class="arrowhead"/>
  <polygon points="1200,585 1192,579 1192,591" class="arrowhead"/>
  <text x="1185" y="568" text-anchor="middle" class="edge-label">6</text>

  <path d="M1310 515 V545" class="line-bi"/>
  <polygon points="1310,515 1304,523 1316,523" class="arrowhead"/>
  <polygon points="1310,545 1304,537 1316,537" class="arrowhead"/>
  <text x="1328" y="540" class="edge-label">7  load / store</text>

  <path d="M715 625 V770" class="line-bi"/>
  <polygon points="715,625 705,641 725,641" class="arrowhead"/>
  <polygon points="715,770 705,754 725,754" class="arrowhead"/>
  <text x="735" y="705" class="edge-label">6  TL Get / data</text>

  <path d="M1065 625 V770" class="line-bi"/>
  <polygon points="1065,625 1055,641 1075,641" class="arrowhead"/>
  <polygon points="1065,770 1055,754 1075,754" class="arrowhead"/>
  <text x="1085" y="705" class="edge-label">6  TL Get / data</text>

  <rect x="1530" y="150" width="245" height="660" class="flow-box"/>
  <text x="1652" y="195" text-anchor="middle" class="flow-title">Automatic flow</text>

  <circle cx="1570" cy="230" r="18" class="step"/>
  <text x="1570" y="236" text-anchor="middle" class="step-text">1</text>
  <text x="1605" y="236" class="flow">Arm output range</text>

  <circle cx="1570" cy="300" r="18" class="step"/>
  <text x="1570" y="306" text-anchor="middle" class="step-text">2</text>
  <text x="1605" y="295" class="flow">Configure CGRA</text>
  <text x="1605" y="320" class="flow">and queue launch</text>

  <circle cx="1570" cy="380" r="18" class="step"/>
  <text x="1570" y="386" text-anchor="middle" class="step-text">3</text>
  <text x="1605" y="386" class="flow">Submit Gemmini</text>

  <circle cx="1570" cy="450" r="18" class="step"/>
  <text x="1570" y="456" text-anchor="middle" class="step-text">4</text>
  <text x="1605" y="445" class="flow">Report output</text>
  <text x="1605" y="470" class="flow">ready</text>

  <circle cx="1570" cy="530" r="18" class="step"/>
  <text x="1570" y="536" text-anchor="middle" class="step-text">5</text>
  <text x="1605" y="536" class="flow">Send copy request</text>

  <circle cx="1570" cy="600" r="18" class="step"/>
  <text x="1570" y="606" text-anchor="middle" class="step-text">6</text>
  <text x="1605" y="595" class="flow">Transfer through</text>
  <text x="1605" y="620" class="flow">TileLink</text>

  <circle cx="1570" cy="680" r="18" class="step"/>
  <text x="1570" y="686" text-anchor="middle" class="step-text">7</text>
  <text x="1605" y="686" class="flow">Launch CGRA</text>

  <circle cx="1570" cy="750" r="18" class="step"/>
  <text x="1570" y="756" text-anchor="middle" class="step-text">8</text>
  <text x="1605" y="756" class="flow">Read final result</text>

  <rect x="300" y="965" width="1475" height="480" class="flow-box"/>
  <text x="335" y="1005" class="flow-title">Manual configuration</text>
  <text x="335" y="1038" class="label">Separate elaboration: AutoLink control hardware and the task table are omitted.</text>

  <rect x="335" y="1120" width="170" height="170" class="cpu-box"/>
  <text x="420" y="1215" text-anchor="middle" class="module">CPU</text>

  <rect x="575" y="1120" width="230" height="100" class="block"/>
  <text x="690" y="1180" text-anchor="middle" class="module">Gemmini Core</text>

  <rect x="875" y="1245" width="220" height="80" class="block"/>
  <text x="985" y="1280" text-anchor="middle" class="module">External SPM</text>
  <text x="985" y="1310" text-anchor="middle" class="label">4 banks</text>

  <rect x="1160" y="1090" width="570" height="260" class="ip"/>
  <text x="1180" y="1125" class="group-title">CGRA</text>

  <rect x="1190" y="1140" width="210" height="85" class="block"/>
  <text x="1295" y="1190" text-anchor="middle" class="module">CGRA Core</text>

  <rect x="1470" y="1140" width="220" height="85" class="fabric"/>
  <text x="1580" y="1190" text-anchor="middle" class="module">CGRA DMA</text>

  <rect x="1330" y="1255" width="220" height="75" class="block"/>
  <text x="1440" y="1302" text-anchor="middle" class="module">CGRA SPM</text>

  <rect x="575" y="1365" width="1115" height="60" class="fabric"/>
  <text x="1132" y="1403" text-anchor="middle" class="module">TileLink System Bus</text>

  <path d="M505 1170 H575" class="manual-line"/>
  <polygon points="575,1170 559,1160 559,1180" class="manual-head"/>
  <text x="575" y="1110" class="edge-label">1  custom3</text>

  <path d="M505 1245 H540 V1080 H1125 V1182 H1190" class="manual-line"/>
  <polygon points="1190,1182 1174,1172 1174,1192" class="manual-head"/>
  <text x="635" y="1070" class="edge-label">3  configure and DMA / 5  launch / 6  poll (custom0)</text>

  <path d="M690 1220 V1285 H875" class="manual-line"/>
  <polygon points="875,1285 859,1275 859,1295" class="manual-head"/>
  <text x="690" y="1265" class="edge-label">2  write result</text>

  <path d="M985 1325 V1365" class="manual-line"/>
  <polygon points="985,1325 979,1333 991,1333" class="manual-head"/>
  <polygon points="985,1365 979,1357 991,1357" class="manual-head"/>

  <path d="M1580 1225 V1365" class="manual-line"/>
  <polygon points="1580,1225 1570,1241 1590,1241" class="manual-head"/>
  <polygon points="1580,1365 1570,1349 1590,1349" class="manual-head"/>
  <text x="1600" y="1300" class="edge-label">4  TL Get / data</text>

  <path d="M1510 1225 V1255" class="manual-line"/>
  <polygon points="1510,1255 1500,1239 1520,1239" class="manual-head"/>

  <path d="M1365 1225 V1255" class="manual-line"/>
  <polygon points="1365,1225 1359,1233 1371,1233" class="manual-head"/>
  <polygon points="1365,1255 1359,1247 1371,1247" class="manual-head"/>
</svg>
